<?xml version="1.0" encoding="UTF-8" standalone="no"?>
<!DOCTYPE svg PUBLIC "-//W3C//DTD SVG 1.1//EN" "http://www.w3.org/Graphics/SVG/1.1/DTD/svg11.dtd">
<svg width="100%" height="100%" viewBox="0 0 2732 2048" version="1.1" xmlns="http://www.w3.org/2000/svg" xmlns:xlink="http://www.w3.org/1999/xlink" xml:space="preserve" xmlns:serif="http://www.serif.com/" style="fill-rule:evenodd;clip-rule:evenodd;stroke-linejoin:round;stroke-miterlimit:2;">
    <g transform="matrix(1,0,0,1,38.2908,2.29616)">
        <g id="_7---BANK-DEAL-" serif:id="7 - BANK DEAL ">
            <g transform="matrix(1,0,0,1,-15.1114,-18.1641)">
                <g>
                    <path d="M334.738,1784.12L333.178,1715.3L391.33,1715.3L391.33,1649.76L2351.55,1649.76L2351.55,1715.3L2398.03,1715.3L2398.03,1784.38C2398.03,1784.38 2433.64,1784.38 2433.64,1784.38L2433.64,1853.47L276.287,1853.47L276.287,1784.38L334.738,1784.38L334.738,1784.12ZM487.677,609.761L391.33,609.761L1383.12,134.182L2374.91,609.761L2266.02,609.761L2266.02,1649.76L487.677,1649.76L487.677,609.761Z" style="fill:rgb(255,241,223);"/>
                    <path d="M2398.03,1784.07L334.737,1784.07L334.306,1765.07L2398.03,1765.07L2398.03,1784.07ZM2351.55,1714.9L391.33,1714.9L391.33,1695.9L2351.55,1695.9L2351.55,1714.9ZM2266.02,1649.59L487.677,1649.59L487.677,1630.59L2266.02,1630.59L2266.02,1649.59ZM2266.02,630.347L487.677,632.931L487.677,612.931L2266.02,610.347L2266.02,630.347Z" style="fill:rgb(255,189,180);"/>
                    <path d="M2266.02,625.309L2000.63,663.609L2000.63,1635.01L1751.08,1635.01L1751.08,645.25C1704.65,650.965 1590.31,665.153 1483.68,679.294L1483.68,1635.01L1234.12,1635.01L1234.12,631.846L966.719,663.609L966.719,1635.01L717.166,1635.01L717.166,635.549L487.677,663.609L487.677,621.639C487.677,621.639 656.465,626.77 717.166,630.627L717.166,625.018L966.719,625.018L966.719,621.639L1261.12,621.639L1252.18,625.018L1483.68,625.018L1483.68,630.94L1751.08,625.457L1751.08,625.018L2000.63,625.018L2000.63,621.639L2266.02,624.993L2266.02,625.309Z" style="fill:rgb(255,189,180);"/>
                </g>
                <g>
                    <g transform="matrix(1,0,0,1,-111.727,12.8484)">
                        <circle cx="1494.85" cy="372.517" r="157.821" style="fill:rgb(255,207,132);"/>
                    </g>
                    <g transform="matrix(0.811681,0,0,0.811681,169.781,83.0003)">
                        <path d="M1494.85,220.856C1578.55,220.856 1646.51,288.813 1646.51,372.517C1646.51,456.221 1578.55,524.178 1494.85,524.178C1491.45,524.178 1488.69,526.938 1488.69,530.338C1488.69,533.738 1491.45,536.498 1494.85,536.498C1585.35,536.498 1658.83,463.021 1658.83,372.517C1658.83,282.013 1585.35,208.536 1494.85,208.536C1491.45,208.536 1488.69,211.296 1488.69,214.696C1488.69,218.096 1491.45,220.856 1494.85,220.856Z" style="fill:rgb(253,153,9);"/>
                    </g>
                    <g transform="matrix(0.811681,0,0,0.811681,169.781,83.0003)">
                        <path d="M1494.85,524.178C1411.14,524.178 1343.18,456.221 1343.18,372.517C1343.18,288.813 1411.14,220.856 1494.85,220.856C1498.25,220.856 1501.01,218.096 1501.01,214.696C1501.01,211.296 1498.25,208.536 1494.85,208.536C1404.34,208.536 1330.87,282.013 1330.87,372.517C1330.87,463.021 1404.34,536.498 1494.85,536.498C1498.25,536.498 1501.01,533.738 1501.01,530.338C1501.01,526.938 1498.25,524.178 1494.85,524.178Z" style="fill:rgb(253,153,9);"/>
                    </g>
                    <path d="M1402.12,542.052L1398.89,516.051C1398.55,513.312 1400.5,510.813 1403.24,510.472C1405.98,510.132 1408.47,512.079 1408.82,514.818L1412.01,540.543C1408.75,541.148 1405.45,541.652 1402.12,542.052ZM1431.63,535.577L1422.69,509.194C1421.81,506.58 1423.21,503.739 1425.83,502.854C1428.44,501.968 1431.28,503.371 1432.16,505.984L1441.05,532.199C1437.96,533.421 1434.82,534.548 1431.63,535.577ZM1296.12,517.029L1310.02,494.172C1311.45,491.814 1314.53,491.064 1316.89,492.498C1319.25,493.932 1320,497.01 1318.57,499.368L1304.63,522.286C1301.73,520.621 1298.89,518.866 1296.12,517.029ZM1512.97,475.038L1490,458.04C1487.79,456.398 1487.32,453.265 1488.96,451.046C1490.6,448.828 1493.73,448.36 1495.95,450.001L1518.41,466.623C1516.69,469.489 1514.87,472.296 1512.97,475.038ZM1233.13,434.557L1260.12,422.41C1262.63,421.277 1265.6,422.401 1266.73,424.917C1267.86,427.434 1266.74,430.396 1264.22,431.529L1236.56,443.98C1235.32,440.887 1234.17,437.746 1233.13,434.557ZM1536.26,347.086C1537.06,350.308 1537.77,353.568 1538.37,356.863L1511.76,363.138C1509.08,363.772 1506.38,362.105 1505.75,359.42C1505.11,356.734 1506.78,354.039 1509.46,353.405L1536.26,347.086ZM1252.71,296.494L1276.49,312.048C1278.8,313.559 1279.45,316.66 1277.94,318.97C1276.43,321.279 1273.33,321.928 1271.02,320.417L1247.34,304.926C1249.04,302.054 1250.84,299.242 1252.71,296.494ZM1268.23,277.202L1287.57,291.424C1289.79,293.059 1290.27,296.192 1288.63,298.414C1287,300.637 1283.86,301.114 1281.64,299.479L1261.59,284.725C1263.72,282.148 1265.94,279.639 1268.23,277.202ZM1474.34,256.597C1477.06,258.529 1479.72,260.544 1482.31,262.643L1465.02,284.442C1463.3,286.604 1460.15,286.966 1457.99,285.251C1455.83,283.536 1455.47,280.388 1457.18,278.226L1474.34,256.597ZM1447.56,241.277C1450.61,242.646 1453.61,244.11 1456.55,245.659L1444.36,268.524C1443.06,270.959 1440.03,271.881 1437.59,270.583C1435.16,269.284 1434.24,266.253 1435.54,263.818L1447.56,241.277ZM1347.73,231.536L1354.77,256.636C1355.51,259.293 1353.96,262.055 1351.3,262.8C1348.64,263.546 1345.88,261.994 1345.14,259.336L1338.06,234.083C1341.24,233.135 1344.46,232.285 1347.73,231.536Z" style="fill:rgb(253,153,9);"/>
                </g>
                <g transform="matrix(1.11006,0.41898,-0.41898,1.11006,226.696,-499.195)">
                    <g transform="matrix(168.886,-75.1162,75.4425,169.619,1155.79,433.379)">
                        <path d="M0.084,-0.173C0.141,-0.126 0.208,-0.103 0.286,-0.102C0.379,-0.103 0.425,-0.136 0.427,-0.201C0.427,-0.254 0.396,-0.286 0.334,-0.297C0.305,-0.301 0.274,-0.305 0.24,-0.31C0.179,-0.32 0.132,-0.343 0.1,-0.378C0.067,-0.414 0.051,-0.458 0.051,-0.51C0.051,-0.572 0.071,-0.622 0.113,-0.66C0.153,-0.698 0.21,-0.717 0.283,-0.718C0.372,-0.716 0.449,-0.691 0.514,-0.644L0.454,-0.555C0.401,-0.59 0.342,-0.609 0.278,-0.61C0.245,-0.61 0.217,-0.602 0.195,-0.585C0.172,-0.568 0.16,-0.542 0.159,-0.508C0.159,-0.487 0.167,-0.469 0.183,-0.452C0.199,-0.435 0.225,-0.424 0.26,-0.417C0.279,-0.414 0.306,-0.41 0.34,-0.406C0.407,-0.397 0.456,-0.373 0.488,-0.334C0.519,-0.296 0.535,-0.252 0.535,-0.201C0.532,-0.065 0.448,0.004 0.285,0.006C0.18,0.006 0.089,-0.027 0.013,-0.092L0.084,-0.173Z" style="fill:rgb(253,153,9);fill-rule:nonzero;"/>
                    </g>
                    <g transform="matrix(0.997551,-0.0699429,0.0699429,0.997551,-14.0824,86.2329)">
                        <path d="M1135.29,271.097L1178.59,431.431L1188.24,428.824L1144.94,268.49L1135.29,271.097Z" style="fill:rgb(253,153,9);"/>
                    </g>
                    <g transform="matrix(0.997551,-0.0699429,0.0699429,0.997551,2.44825,80.5396)">
                        <path d="M1135.29,271.097L1178.59,431.431L1188.24,428.824L1144.94,268.49L1135.29,271.097Z" style="fill:rgb(253,153,9);"/>
                    </g>
                </g>
            </g>
            <g>
                <g transform="matrix(0.80681,0.590811,-0.590811,0.80681,745.123,-436.422)">
                    <g transform="matrix(1,0,0,1,170.194,146.13)">
                        <path d="M764.401,1104.28L907.641,1239.72L790.288,1369.79L645.775,1231.56L764.401,1104.28Z" style="fill:white;"/>
                    </g>
                    <g transform="matrix(1,0,0,1,170.194,146.13)">
                        <path d="M652.798,1231.36L729.932,1305.14C731.926,1307.05 731.996,1310.21 730.089,1312.21C728.181,1314.2 725.013,1314.27 723.019,1312.37L642.319,1235.17C640.342,1233.28 640.252,1230.15 642.118,1228.15L760.743,1100.87C761.651,1099.89 762.911,1099.32 764.243,1099.28C765.575,1099.24 766.868,1099.73 767.836,1100.64L838.184,1167.16C840.189,1169.06 840.278,1172.23 838.382,1174.23C836.486,1176.24 833.319,1176.32 831.314,1174.43L764.625,1111.37L652.798,1231.36Z"/>
                    </g>
                    <g transform="matrix(1,0,0,1,170.194,146.13)">
                        <path d="M900.657,1240L831.314,1174.43C829.309,1172.53 829.22,1169.37 831.116,1167.36C833.012,1165.36 836.179,1165.27 838.184,1167.16L911.077,1236.09C913.05,1237.95 913.173,1241.05 911.354,1243.07L794,1373.14C793.095,1374.15 791.822,1374.74 790.472,1374.79C789.121,1374.84 787.808,1374.34 786.832,1373.41L723.019,1312.37C721.025,1310.46 720.955,1307.29 722.862,1305.3C724.77,1303.3 727.937,1303.23 729.932,1305.14L790.024,1362.62L900.657,1240Z"/>
                    </g>
                    <path d="M1054.66,1386.89L1045.36,1378.16L949.318,1480.57L958.625,1489.3L1054.66,1386.89ZM1033.37,1366.75L1024.07,1358.03L928.027,1460.44L937.334,1469.16L1033.37,1366.75ZM1012.08,1346.62L1002.77,1337.89L906.737,1440.3L916.044,1449.03L1012.08,1346.62ZM990.792,1326.49L981.485,1317.76L885.447,1420.17L894.754,1428.9L990.792,1326.49ZM969.502,1306.36L960.195,1297.63L864.157,1400.04L873.464,1408.77L969.502,1306.36ZM948.211,1286.23L938.905,1277.5L842.866,1379.91L852.173,1388.63L948.211,1286.23Z"/>
                </g>
                <g transform="matrix(0.977511,0.210883,-0.210883,0.977511,136.075,-309.167)">
                    <g transform="matrix(1,0,0,1,170.194,146.13)">
                        <path d="M764.401,1104.28L907.641,1239.72L790.288,1369.79L645.775,1231.56L764.401,1104.28Z" style="fill:white;"/>
                    </g>
                    <g transform="matrix(1,0,0,1,170.194,146.13)">
                        <path d="M902.054,1239.94L850.499,1191.19C848.895,1189.68 848.824,1187.14 850.341,1185.54C851.858,1183.93 854.391,1183.86 855.996,1185.38L910.39,1236.81C911.968,1238.31 912.067,1240.79 910.611,1242.4L793.258,1372.47C792.534,1373.28 791.515,1373.75 790.435,1373.79C789.355,1373.83 788.304,1373.43 787.523,1372.68L726.277,1314.1C724.681,1312.57 724.625,1310.04 726.151,1308.44C727.677,1306.85 730.211,1306.79 731.807,1308.32L790.077,1364.06L902.054,1239.94Z"/>
                    </g>
                    <g transform="matrix(1,0,0,1,170.194,146.13)">
                        <path d="M651.393,1231.4L731.807,1308.32C733.402,1309.84 733.458,1312.38 731.932,1313.97C730.406,1315.57 727.872,1315.62 726.277,1314.1L643.01,1234.45C641.429,1232.94 641.357,1230.43 642.849,1228.83L761.475,1101.55C762.201,1100.77 763.209,1100.31 764.274,1100.28C765.34,1100.24 766.375,1100.64 767.149,1101.37L855.996,1185.38C857.6,1186.9 857.67,1189.43 856.154,1191.04C854.637,1192.64 852.103,1192.71 850.499,1191.19L764.58,1109.95L651.393,1231.4Z"/>
                    </g>
                    <path d="M1054.66,1386.89L1045.36,1378.16L949.318,1480.57L958.625,1489.3L1054.66,1386.89ZM1033.37,1366.75L1024.07,1358.03L928.027,1460.44L937.334,1469.16L1033.37,1366.75ZM1012.08,1346.62L1002.77,1337.89L906.737,1440.3L916.044,1449.03L1012.08,1346.62ZM990.792,1326.49L981.485,1317.76L885.447,1420.17L894.754,1428.9L990.792,1326.49ZM969.502,1306.36L960.195,1297.63L864.157,1400.04L873.464,1408.77L969.502,1306.36ZM948.211,1286.23L938.905,1277.5L842.866,1379.91L852.173,1388.63L948.211,1286.23Z"/>
                </g>
            </g>
            <g id="COINS">
                <g transform="matrix(0.837793,0,0,0.860247,-536.927,1371.61)">
                    <g transform="matrix(1,0,0,1,-111.727,12.8484)">
                        <circle cx="1494.85" cy="372.517" r="157.821" style="fill:rgb(255,207,132);"/>
                    </g>
                    <g transform="matrix(0.811681,0,0,0.811681,169.781,83.0003)">
                        <path d="M1494.85,220.856C1578.55,220.856 1646.51,288.813 1646.51,372.517C1646.51,456.221 1578.55,524.178 1494.85,524.178C1491.45,524.178 1488.69,526.938 1488.69,530.338C1488.69,533.738 1491.45,536.498 1494.85,536.498C1585.35,536.498 1658.83,463.021 1658.83,372.517C1658.83,282.013 1585.35,208.536 1494.85,208.536C1491.45,208.536 1488.69,211.296 1488.69,214.696C1488.69,218.096 1491.45,220.856 1494.85,220.856Z" style="fill:rgb(253,153,9);"/>
                    </g>
                    <g transform="matrix(0.811681,0,0,0.811681,169.781,83.0003)">
                        <path d="M1494.85,524.178C1411.14,524.178 1343.18,456.221 1343.18,372.517C1343.18,288.813 1411.14,220.856 1494.85,220.856C1498.25,220.856 1501.01,218.096 1501.01,214.696C1501.01,211.296 1498.25,208.536 1494.85,208.536C1404.34,208.536 1330.87,282.013 1330.87,372.517C1330.87,463.021 1404.34,536.498 1494.85,536.498C1498.25,536.498 1501.01,533.738 1501.01,530.338C1501.01,526.938 1498.25,524.178 1494.85,524.178Z" style="fill:rgb(253,153,9);"/>
                    </g>
                    <path d="M1402.12,542.052L1398.89,516.051C1398.55,513.312 1400.5,510.813 1403.24,510.472C1405.98,510.132 1408.47,512.079 1408.82,514.818L1412.01,540.543C1408.75,541.148 1405.45,541.652 1402.12,542.052ZM1431.63,535.577L1422.69,509.194C1421.81,506.58 1423.21,503.739 1425.83,502.854C1428.44,501.968 1431.28,503.371 1432.16,505.984L1441.05,532.199C1437.96,533.421 1434.82,534.548 1431.63,535.577ZM1296.12,517.029L1310.02,494.172C1311.45,491.814 1314.53,491.064 1316.89,492.498C1319.25,493.932 1320,497.01 1318.57,499.368L1304.63,522.286C1301.73,520.621 1298.89,518.866 1296.12,517.029ZM1512.97,475.038L1490,458.04C1487.79,456.398 1487.32,453.265 1488.96,451.046C1490.6,448.828 1493.73,448.36 1495.95,450.001L1518.41,466.623C1516.69,469.489 1514.87,472.296 1512.97,475.038ZM1233.13,434.557L1260.12,422.41C1262.63,421.277 1265.6,422.401 1266.73,424.917C1267.86,427.434 1266.74,430.396 1264.22,431.529L1236.56,443.98C1235.32,440.887 1234.17,437.746 1233.13,434.557ZM1536.26,347.086C1537.06,350.308 1537.77,353.568 1538.37,356.863L1511.76,363.138C1509.08,363.772 1506.38,362.105 1505.75,359.42C1505.11,356.734 1506.78,354.039 1509.46,353.405L1536.26,347.086ZM1252.71,296.494L1276.49,312.048C1278.8,313.559 1279.45,316.66 1277.94,318.97C1276.43,321.279 1273.33,321.928 1271.02,320.417L1247.34,304.926C1249.04,302.054 1250.84,299.242 1252.71,296.494ZM1268.23,277.202L1287.57,291.424C1289.79,293.059 1290.27,296.192 1288.63,298.414C1287,300.637 1283.86,301.114 1281.64,299.479L1261.59,284.725C1263.72,282.148 1265.94,279.639 1268.23,277.202ZM1474.34,256.597C1477.06,258.529 1479.72,260.544 1482.31,262.643L1465.02,284.442C1463.3,286.604 1460.15,286.966 1457.99,285.251C1455.83,283.536 1455.47,280.388 1457.18,278.226L1474.34,256.597ZM1447.56,241.277C1450.61,242.646 1453.61,244.11 1456.55,245.659L1444.36,268.524C1443.06,270.959 1440.03,271.881 1437.59,270.583C1435.16,269.284 1434.24,266.253 1435.54,263.818L1447.56,241.277ZM1347.73,231.536L1354.77,256.636C1355.51,259.293 1353.96,262.055 1351.3,262.8C1348.64,263.546 1345.88,261.994 1345.14,259.336L1338.06,234.083C1341.24,233.135 1344.46,232.285 1347.73,231.536Z" style="fill:rgb(253,153,9);"/>
                </g>
                <g transform="matrix(0.210527,0.805986,-0.815723,0.21307,1233.47,514.535)">
                    <g transform="matrix(1,0,0,1,-111.727,12.8484)">
                        <circle cx="1494.85" cy="372.517" r="157.821" style="fill:rgb(255,207,132);"/>
                    </g>
                    <g transform="matrix(0.811681,0,0,0.811681,169.781,83.0003)">
                        <path d="M1494.85,220.856C1578.55,220.856 1646.51,288.813 1646.51,372.517C1646.51,456.221 1578.55,524.178 1494.85,524.178C1491.45,524.178 1488.69,526.938 1488.69,530.338C1488.69,533.738 1491.45,536.498 1494.85,536.498C1585.35,536.498 1658.83,463.021 1658.83,372.517C1658.83,282.013 1585.35,208.536 1494.85,208.536C1491.45,208.536 1488.69,211.296 1488.69,214.696C1488.69,218.096 1491.45,220.856 1494.85,220.856Z" style="fill:rgb(253,153,9);"/>
                    </g>
                    <g transform="matrix(0.811681,0,0,0.811681,169.781,83.0003)">
                        <path d="M1494.85,524.178C1411.14,524.178 1343.18,456.221 1343.18,372.517C1343.18,288.813 1411.14,220.856 1494.85,220.856C1498.25,220.856 1501.01,218.096 1501.01,214.696C1501.01,211.296 1498.25,208.536 1494.85,208.536C1404.34,208.536 1330.87,282.013 1330.87,372.517C1330.87,463.021 1404.34,536.498 1494.85,536.498C1498.25,536.498 1501.01,533.738 1501.01,530.338C1501.01,526.938 1498.25,524.178 1494.85,524.178Z" style="fill:rgb(253,153,9);"/>
                    </g>
                    <path d="M1402.12,542.052L1398.89,516.051C1398.55,513.312 1400.5,510.813 1403.24,510.472C1405.98,510.132 1408.47,512.079 1408.82,514.818L1412.01,540.543C1408.75,541.148 1405.45,541.652 1402.12,542.052ZM1431.63,535.577L1422.69,509.194C1421.81,506.58 1423.21,503.739 1425.83,502.854C1428.44,501.968 1431.28,503.371 1432.16,505.984L1441.05,532.199C1437.96,533.421 1434.82,534.548 1431.63,535.577ZM1296.12,517.029L1310.02,494.172C1311.45,491.814 1314.53,491.064 1316.89,492.498C1319.25,493.932 1320,497.01 1318.57,499.368L1304.63,522.286C1301.73,520.621 1298.89,518.866 1296.12,517.029ZM1512.97,475.038L1490,458.04C1487.79,456.398 1487.32,453.265 1488.96,451.046C1490.6,448.828 1493.73,448.36 1495.95,450.001L1518.41,466.623C1516.69,469.489 1514.87,472.296 1512.97,475.038ZM1233.13,434.557L1260.12,422.41C1262.63,421.277 1265.6,422.401 1266.73,424.917C1267.86,427.434 1266.74,430.396 1264.22,431.529L1236.56,443.98C1235.32,440.887 1234.17,437.746 1233.13,434.557ZM1536.26,347.086C1537.06,350.308 1537.77,353.568 1538.37,356.863L1511.76,363.138C1509.08,363.772 1506.38,362.105 1505.75,359.42C1505.11,356.734 1506.78,354.039 1509.46,353.405L1536.26,347.086ZM1252.71,296.494L1276.49,312.048C1278.8,313.559 1279.45,316.66 1277.94,318.97C1276.43,321.279 1273.33,321.928 1271.02,320.417L1247.34,304.926C1249.04,302.054 1250.84,299.242 1252.71,296.494ZM1268.23,277.202L1287.57,291.424C1289.79,293.059 1290.27,296.192 1288.63,298.414C1287,300.637 1283.86,301.114 1281.64,299.479L1261.59,284.725C1263.72,282.148 1265.94,279.639 1268.23,277.202ZM1474.34,256.597C1477.06,258.529 1479.72,260.544 1482.31,262.643L1465.02,284.442C1463.3,286.604 1460.15,286.966 1457.99,285.251C1455.83,283.536 1455.47,280.388 1457.18,278.226L1474.34,256.597ZM1447.56,241.277C1450.61,242.646 1453.61,244.11 1456.55,245.659L1444.36,268.524C1443.06,270.959 1440.03,271.881 1437.59,270.583C1435.16,269.284 1434.24,266.253 1435.54,263.818L1447.56,241.277ZM1347.73,231.536L1354.77,256.636C1355.51,259.293 1353.96,262.055 1351.3,262.8C1348.64,263.546 1345.88,261.994 1345.14,259.336L1338.06,234.083C1341.24,233.135 1344.46,232.285 1347.73,231.536Z" style="fill:rgb(253,153,9);"/>
                </g>
            </g>
            <g id="CHARACTERS">
                <g>
                    <path d="M910.101,719.193C909.75,718.65 896.143,719.147 895.087,719.081C879.15,718.093 863.236,716.532 847.375,714.712C794.661,708.663 731.763,704.5 688.266,670.888C638.784,632.653 680.474,576.488 734.669,586.878C801.487,599.688 852.1,665.886 909.502,698.892"/>
                    <g transform="matrix(0.974553,0,0,0.974553,15.3474,3.94254)">
                        <circle cx="973.992" cy="733.752" r="66.648" style="fill:rgb(171,209,206);"/>
                    </g>
                    <path d="M936.241,743.984L915.016,761.014C905.405,749.691 899.602,735.029 899.602,719.023C899.602,683.174 928.706,654.07 964.555,654.07C997.75,654.07 1025.16,679.026 1029.04,711.187C1018.18,709.914 1009.16,703.207 1001.88,691.316C1001.27,715.55 979.944,724.8 954.229,729.551C953.153,723.382 947.651,718.679 941.036,718.679C933.649,718.679 927.651,724.542 927.651,731.764C927.651,737.335 931.219,742.097 936.241,743.984Z"/>
                </g>
                <g>
                    <g>
                        <path d="M1364.03,1082.12C1364.03,1082.12 1641.89,788.924 1811.9,800.668C1839.14,802.549 1916.75,813.107 1991.73,867.802C2045.83,907.258 2092.07,952.713 2136.94,999.068C2158.89,1021.76 2168.68,1053.58 2163.26,1084.68C2157.85,1115.79 2137.89,1142.43 2109.55,1156.37C2068.74,1176.48 2016.22,1195.69 1951.76,1206.5C1951.76,1206.5 1963.23,1227.23 1970.35,1240.1C1974.07,1246.83 1974.02,1255 1970.22,1261.68C1964.35,1271.69 1953.32,1286.93 1934.19,1302.06C1934.19,1302.06 1933.1,1309.18 1932.06,1315.96C1931.57,1319.15 1929.83,1322.01 1927.22,1323.91C1924.61,1325.82 1921.36,1326.6 1918.17,1326.09C1918.17,1326.09 1918.17,1326.09 1918.17,1326.09C1913.3,1325.32 1909.59,1321.32 1909.17,1316.41C1908.93,1313.43 1909.07,1310.28 1909.59,1307.76C1909.59,1307.76 1921.95,1222.64 1854.74,1152.19C1854.74,1152.19 1836.25,1123.2 1864.53,1104.59L1970.23,1040.95L1904.19,985.407C1904.19,985.407 1890.04,1054.95 1809.58,1070.19C1774.93,1076.76 1709.55,1078.81 1669.19,1017.33C1669.19,1017.33 1459.26,1184.15 1404.07,1250.11C1404.07,1250.11 1395.67,1258.15 1388.35,1252.94C1384.25,1250.02 1378.83,1243.96 1384.85,1234.78C1384.85,1234.78 1374.97,1243.7 1366.27,1237.75C1360.47,1233.78 1356,1226 1361.97,1216.86C1361.97,1216.86 1351.87,1226.1 1342.75,1219.57C1336.61,1215.16 1335.19,1207.39 1338.21,1198.53C1338.21,1198.53 1327.53,1209.13 1318.44,1202.98C1312.08,1198.68 1309.01,1189.74 1313.35,1183.24L1353.69,1125.33L1364.03,1082.12Z" style="fill:rgb(233,103,60);"/>
                        <path d="M1931.2,1318.95C1931.17,1318.61 1931.2,1318.27 1931.26,1317.92C1941.24,1267.14 1932.26,1213.43 1932.26,1213.43C1931.9,1211.25 1933.37,1209.19 1935.55,1208.82C1937.72,1208.46 1939.79,1209.93 1940.15,1212.11C1940.15,1212.11 1942.48,1226.09 1943.49,1246.64L1957.17,1250.46C1959.29,1251.06 1960.54,1253.26 1959.94,1255.39C1959.35,1257.52 1957.14,1258.76 1955.01,1258.16L1943.82,1255.03C1944.14,1267.08 1943.94,1280.79 1942.61,1294.96C1939.99,1297.32 1937.19,1299.69 1934.19,1302.06C1934.19,1302.06 1933.1,1309.18 1932.06,1315.96C1931.9,1317 1931.61,1318 1931.2,1318.95Z" style="fill:rgb(217,81,46);"/>
                        <path d="M1478.79,974.437C1574.91,892.119 1712.02,793.768 1811.9,800.668C1839.14,802.549 1916.75,813.107 1991.73,867.802C2045.83,907.258 2092.07,952.713 2136.94,999.068C2158.89,1021.76 2168.68,1053.58 2163.26,1084.68C2157.85,1115.79 2137.89,1142.43 2109.55,1156.37C2089.42,1166.29 2066.45,1175.99 2040.59,1184.57L1946.05,1055.51L1970.23,1040.95L1904.19,985.407C1904.19,985.407 1890.04,1054.95 1809.58,1070.19C1774.93,1076.76 1709.55,1078.81 1669.19,1017.33C1669.19,1017.33 1627.99,1050.06 1577.29,1092.28L1478.79,974.437Z" style="fill:rgb(216,75,38);"/>
                        <path d="M1371.72,1239.75L1383.4,1223.47C1384.68,1221.67 1387.19,1221.26 1388.98,1222.55C1390.77,1223.84 1391.18,1226.34 1389.9,1228.13C1389.9,1228.13 1384.39,1235.47 1384.85,1234.78C1384.85,1234.78 1378.63,1240.4 1371.72,1239.75ZM1348.54,1221.83L1360.58,1205.06C1361.86,1203.27 1364.37,1202.86 1366.16,1204.14C1367.95,1205.43 1368.36,1207.93 1367.08,1209.73L1361.94,1216.89C1361.47,1217.31 1355.4,1222.59 1348.54,1221.83ZM1323.79,1204.87L1337.06,1186.37C1338.35,1184.58 1340.85,1184.16 1342.64,1185.45C1344.44,1186.74 1344.85,1189.24 1343.56,1191.03L1338.13,1198.61C1337.33,1199.37 1330.78,1205.4 1323.79,1204.87Z" style="fill:rgb(217,81,46);"/>
                    </g>
                    <g>
                        <g transform="matrix(1,0,0,1,-1.7806,-1.95146)">
                            <circle cx="1800.56" cy="725.265" r="59.788" style="fill:rgb(233,103,60);"/>
                        </g>
                        <path d="M1769.1,671.414C1777.84,666.396 1787.98,663.526 1798.78,663.526C1831.78,663.526 1858.57,690.316 1858.57,723.314C1858.57,745.459 1846.5,764.808 1828.59,775.139L1809.54,741.915C1813.45,743.119 1817.97,742.717 1821.97,740.443C1829.32,736.259 1832.12,727.31 1828.23,720.472C1824.34,713.635 1815.21,711.48 1807.86,715.665C1803.84,717.955 1801.17,721.672 1800.23,725.69L1769.1,671.414Z"/>
                    </g>
                    <g>
                        <path d="M1969.05,1039.96L1969.27,1039.83C1969.27,1039.83 1990.12,1057.56 2002.38,1067.98C2003.1,1068.59 2003.27,1069.62 2002.79,1070.43C2002.31,1071.24 2001.31,1071.59 2000.44,1071.24L1951.47,1052.24L1970.23,1040.95L1969.05,1039.96ZM1663.38,1021.97L1710.52,981.901C1711.75,980.85 1713.55,980.787 1714.86,981.748C1716.16,982.71 1716.64,984.444 1716,985.936L1691.56,1043.37C1683.56,1036.31 1676.02,1027.73 1669.19,1017.33C1669.19,1017.33 1667.13,1018.96 1663.38,1021.97ZM1904.31,985.504C1908.11,969.945 1912.04,944.547 1910.55,913.062C1910.48,911.708 1911.38,910.495 1912.69,910.156C1914,909.817 1915.37,910.445 1915.97,911.66C1924.49,929.139 1937.85,964.977 1931.64,1008.5L1904.31,985.504Z" style="fill:rgb(118,32,10);"/>
                        <g transform="matrix(1,0,0,1,3.9275,-7.4927)">
                            <path d="M1470.62,1845.2C1470.62,1845.2 1485.05,1814.19 1514.57,1808.72C1532.44,1616.57 1567.25,1429.13 1626.57,1236.72C1650.05,1160.69 1726.67,1114.24 1804.94,1128.58C1827.53,1132.71 1848.83,1141.76 1865.56,1158.44C1872.98,1165.85 1926.28,1231.2 1906.16,1333.29C1899.78,1365.63 1886.76,1403.68 1877.71,1428.9C1877.71,1428.9 2035.41,1617.48 2056.36,1642.54C2057.73,1644.17 2057.91,1646.5 2056.82,1648.34C2041.76,1673.57 1938.74,1846.21 1938.74,1846.21C1938.74,1846.21 1920.65,1828.77 1927.41,1792.7L1795.66,1648.21C1795.66,1648.21 1728.72,1809.81 1716.65,1838.93C1715.53,1841.64 1712.9,1843.41 1709.97,1843.43C1675.68,1843.69 1470.62,1845.2 1470.62,1845.2Z" style="fill:url(#_Linear1);"/>
                        </g>
                        <path d="M1520.09,1784.57L1737.13,1791.49L1733.86,1799.39L1519.32,1792.55C1519.57,1789.89 1519.83,1787.22 1520.09,1784.57ZM2030,1598.83L1927.55,1781.06L1921.88,1774.84L2024.51,1592.26L2030,1598.83ZM1883.83,1415.27C1883.08,1417.38 1882.35,1419.43 1881.64,1421.41L1888.92,1430.11L1806.64,1648.44L1799.59,1640.71L1791.54,1660.15L1883.83,1415.27ZM1841.89,1131.56C1844.9,1133.01 1847.85,1134.6 1850.72,1136.33C1851.8,1141.01 1854.09,1146.3 1858.44,1151.75C1865.38,1160.43 1918.1,1202.57 1909.02,1306.32C1908.48,1312.5 1909.26,1317.36 1910.97,1321.06C1910.69,1322.62 1910.4,1324.21 1910.08,1325.8C1909.7,1327.76 1909.29,1329.74 1908.85,1331.74C1908.27,1331.16 1907.7,1330.56 1907.16,1329.9C1902.84,1324.72 1900.06,1316.89 1901.05,1305.62C1909.8,1205.66 1858.88,1165.11 1852.2,1156.75C1844.84,1147.55 1842.34,1138.68 1841.89,1131.56Z" style="fill:rgb(217,81,46);"/>
                    </g>
                </g>
                <g>
                    <path d="M1081.63,1401.82C1036.16,1590.31 918.419,1804.08 918.419,1804.08C940.28,1801.95 964.555,1838.97 964.555,1838.97C964.555,1838.97 743.807,1838.97 680.143,1838.97C676.383,1838.97 672.875,1837.08 670.806,1833.94C668.737,1830.8 668.385,1826.83 669.868,1823.38C748.913,1637.18 808.486,1401.22 816.128,1365.25C868.655,1118.04 959.651,1115.68 998.931,1123.37C1010.09,1125.55 1020.18,1128.75 1029.22,1132.87C1123.29,1153.13 1268.29,1218.61 1347.73,1278.17C1372.66,1297 1384.56,1328.48 1378.3,1359.09C1364.71,1425.99 1336.62,1487.67 1303.9,1555.8C1336.23,1572.72 1344.45,1593.64 1344.45,1593.64C1344.45,1593.64 1177.46,1580.63 1137.8,1577.55C1135.7,1577.38 1133.77,1576.31 1132.52,1574.61C1131.27,1572.92 1130.82,1570.76 1131.29,1568.7C1138.22,1538.17 1162.16,1432.75 1162.16,1432.75C1133.41,1425.05 1106.19,1415.27 1081.63,1401.82Z" style="fill:url(#_Linear2);"/>
                    <path d="M703.13,1739.45L944.778,1753.41C943.076,1756.81 941.435,1760.05 939.863,1763.15L699.459,1749.26C700.687,1746 701.909,1742.73 703.13,1739.45ZM1317.21,1527.82L1140.76,1526.98L1143.03,1516.99L1321.86,1517.84C1320.33,1521.15 1318.78,1524.48 1317.21,1527.82ZM993.209,1122.4C995.216,1122.68 997.128,1123.01 998.931,1123.37C1010.09,1125.55 1020.18,1128.75 1029.22,1132.87C1033.08,1133.7 1037.02,1134.61 1041.04,1135.59C1050.51,1143 1060.39,1152.73 1069.48,1165.47C1098.67,1206.4 1119.95,1278.95 1090.25,1406.33C1087.34,1404.87 1084.47,1403.37 1081.63,1401.82C1079.62,1410.15 1077.47,1418.53 1075.2,1426.92C1075.1,1426.26 1075.13,1425.57 1075.31,1424.89C1111.36,1288.83 1091.12,1213.03 1061.34,1171.28C1032.36,1130.64 994.718,1122.96 994.718,1122.96L994.718,1122.96C994.173,1122.85 993.667,1122.66 993.209,1122.4Z" style="fill:rgb(138,187,184);"/>
                    <path d="M1151.08,1429.65L1151.08,1429.6C1151.08,1429.6 1182.85,1438.89 1214.43,1442.89C1216.11,1443.05 1217.44,1444.41 1217.56,1446.1C1217.69,1447.79 1216.59,1449.33 1214.94,1449.74C1195.15,1454.78 1166.36,1462.1 1154.83,1465.03L1162.16,1432.75C1158.44,1431.75 1154.75,1430.72 1151.08,1429.65Z" style="fill:rgb(138,187,184);"/>
                </g>
                <g>
                    <g>
                        <path d="M831.769,1169.51C831.769,1169.51 835.327,1178.58 841.372,1184.3C844.792,1187.54 851.537,1188.99 857.573,1184.95C869,1177.3 877.468,1158.15 875.557,1137.44C875.062,1132.08 860.358,1088.58 822.324,1064.83L857.573,1044.62C857.573,1044.62 937.638,1135.72 1050.35,1057.39C1050.35,1057.39 1153.72,1137.46 1307.65,1194.15L1355.83,1125.6C1355.83,1125.6 1415.3,1114.3 1426.21,1097.12C1427.86,1094.53 1429.78,1087.65 1417.17,1086.66C1411.47,1086.21 1367.71,1080.34 1290.28,1038.17C1269.04,1026.59 1199.07,991.072 1105.79,898.447C1086.17,878.961 961.591,753.529 769.569,898.447C735.872,923.879 603.051,1026.83 541.851,1123.98C516.471,1164.38 521.199,1216.75 553.403,1251.95C553.399,1251.95 553.399,1251.95 553.399,1251.95C582.86,1284.15 630.961,1291.07 668.298,1268.47C735.635,1227.71 831.769,1169.51 831.769,1169.51Z" style="fill:rgb(171,209,206);"/>
                        <path d="M830.744,1170.13L846.139,1159.85C848.478,1158.39 851.566,1159.1 853.031,1161.44C854.495,1163.78 853.785,1166.86 851.446,1168.33L836.173,1177.89C833.342,1173.52 831.769,1169.51 831.769,1169.51L830.744,1170.13ZM1355.44,1126.14L1355.11,1126.62C1354.71,1126.69 1354.5,1126.74 1354.5,1126.74L1346.97,1137.45C1338.48,1138.62 1331.41,1139.54 1331.41,1139.54C1328.67,1139.89 1326.16,1137.95 1325.81,1135.21C1325.46,1132.48 1327.4,1129.97 1330.13,1129.62C1330.13,1129.62 1343.49,1127.9 1355.44,1126.14Z" style="fill:rgb(138,187,184);"/>
                    </g>
                    <g>
                        <path d="M796.856,1190.48L668.296,1268.41C630.966,1291.04 582.848,1284.14 553.381,1251.93C553.381,1251.93 553.38,1251.93 553.385,1251.93C521.193,1216.74 516.465,1164.39 541.832,1124.01C603.024,1026.86 735.868,923.881 769.569,898.447C961.591,753.529 1086.17,878.961 1105.79,898.447C1199.07,991.072 1269.04,1026.59 1290.28,1038.17C1301.18,1044.1 1311.4,1049.32 1320.95,1053.9L1245.26,1168.87C1126.43,1116.33 1050.35,1057.39 1050.35,1057.39C937.638,1135.72 857.573,1044.62 857.573,1044.62L822.239,1065.03C779.82,1034.18 725.723,1070.73 725.723,1070.73L796.856,1190.48Z" style="fill:rgb(134,184,181);"/>
                        <path d="M726.577,1070.18C726.016,1070.54 725.723,1070.73 725.723,1070.73L730.8,1079.28C687.865,1103.62 644.815,1129.81 601.459,1156.69C599.114,1158.14 596.029,1157.42 594.575,1155.07C593.121,1152.73 593.845,1149.64 596.19,1148.19C639.897,1121.09 683.295,1094.7 726.577,1070.18ZM1048.05,1058.97C1055.93,1051.42 1083.53,1021.48 1092.41,965.29C1092.6,964.081 1093.62,963.176 1094.84,963.131C1096.07,963.085 1097.15,963.913 1097.43,965.103C1099.92,979.496 1102.03,1004.15 1095.62,1034.21C1092.66,1048.05 1087.9,1063.05 1080.54,1078.71C1061,1065.64 1050.35,1057.39 1050.35,1057.39C1049.59,1057.92 1048.82,1058.45 1048.05,1058.97ZM830.63,1060.18C821.631,1039.14 822.624,1020.13 824.699,1008.71C825.027,1006.95 826.432,1005.58 828.207,1005.3C829.983,1005.01 831.743,1005.88 832.602,1007.46C842.577,1026.29 852.135,1038.52 857.488,1044.67L830.63,1060.18Z" style="fill:rgb(31,87,83);"/>
                    </g>
                </g>
                <g>
                    <path d="M1454.94,1154.85C1450.73,1149.78 1450.21,1142.35 1454.14,1136.67C1458.86,1129.83 1468.25,1128.11 1475.09,1132.84L1498.25,1148.84C1505.08,1153.56 1506.8,1162.95 1502.07,1169.79C1497.77,1176.02 1489.59,1177.99 1483,1174.72C1486.66,1179.67 1486.96,1186.59 1483.27,1191.93C1479.05,1198.05 1471.04,1200 1464.57,1196.81C1468.18,1201.67 1468.49,1208.49 1464.85,1213.75C1460.71,1219.75 1452.86,1221.67 1446.5,1218.56C1450.07,1223.35 1450.37,1230.07 1446.8,1235.24C1442.31,1241.74 1433.39,1243.37 1426.89,1238.88L1408.34,1226.06C1401.85,1221.57 1400.21,1212.65 1404.7,1206.16C1408.55,1200.6 1415.64,1198.6 1421.68,1200.96C1417.6,1196.07 1417.1,1188.87 1420.89,1183.38C1424.8,1177.72 1432.02,1175.69 1438.16,1178.1C1434.02,1173.12 1433.51,1165.8 1437.37,1160.22C1441.35,1154.46 1448.69,1152.4 1454.94,1154.85Z" style="fill:rgb(171,209,206);"/>
                    <path d="M1418.54,1189.06L1459.33,1218.53C1455.37,1220.48 1450.62,1220.58 1446.5,1218.56C1446.77,1218.92 1421.46,1200.88 1421.68,1200.96C1418.91,1197.64 1417.79,1193.25 1418.54,1189.06ZM1434.9,1166.48C1434.98,1166.53 1435.05,1166.58 1435.12,1166.63L1476.79,1196.73C1476.92,1196.82 1477.04,1196.92 1477.15,1197.03C1473.22,1198.79 1468.59,1198.79 1464.57,1196.81C1464.99,1197.38 1437.66,1177.9 1438.16,1178.1C1435.46,1174.85 1434.3,1170.6 1434.9,1166.48ZM1451.67,1142.79C1451.85,1142.88 1452.02,1142.99 1452.19,1143.11L1493.86,1173.21C1494.57,1173.72 1495.06,1174.42 1495.31,1175.19C1491.41,1176.76 1486.92,1176.67 1483,1174.72C1483.24,1175.05 1454.82,1154.8 1454.94,1154.85C1452.14,1151.47 1450.97,1147.05 1451.67,1142.79Z" style="fill:rgb(138,187,184);"/>
                </g>
            </g>
            <g id="CASE">
                <path d="M1906.51,1647.56C1906.51,1641.2 1901.36,1636.05 1895.01,1636.05C1846.47,1636.05 1658.68,1636.05 1610.15,1636.05C1603.8,1636.05 1598.65,1641.2 1598.65,1647.56C1598.65,1691.45 1598.65,1845.96 1598.65,1845.96L1906.51,1845.96L1906.51,1647.56Z"/>
                <path d="M1695.35,1636.05L1695.35,1608.35C1695.35,1603.13 1699.59,1598.9 1704.81,1598.9L1800.35,1598.9C1805.57,1598.9 1809.8,1603.13 1809.8,1608.35L1809.8,1636.05L1790.9,1636.05L1790.9,1617.8L1714.26,1617.8L1714.26,1636.05L1695.35,1636.05Z"/>
                <path d="M1903.68,1640.01C1905.44,1642.03 1906.51,1644.67 1906.51,1647.56L1906.51,1650.23L1765.32,1748.82C1757.67,1754.16 1747.49,1754.17 1739.83,1748.84L1598.65,1650.56L1598.65,1647.56C1598.65,1644.77 1599.64,1642.21 1601.29,1640.22L1745.55,1740.63C1749.77,1743.57 1755.38,1743.56 1759.59,1740.62L1903.68,1640.01Z" style="fill:white;"/>
            </g>
        </g>
    </g>
    <defs>
        <linearGradient id="_Linear1" x1="0" y1="0" x2="1" y2="0" gradientUnits="userSpaceOnUse" gradientTransform="matrix(-362.241,-845.316,845.316,-362.241,1764.63,1485.92)"><stop offset="0" style="stop-color:rgb(233,103,60);stop-opacity:1"/><stop offset="1" style="stop-color:rgb(255,189,180);stop-opacity:1"/></linearGradient>
        <linearGradient id="_Linear2" x1="0" y1="0" x2="1" y2="0" gradientUnits="userSpaceOnUse" gradientTransform="matrix(538.166,-415.228,415.228,538.166,1082.88,1641.79)"><stop offset="0" style="stop-color:rgb(171,209,206);stop-opacity:1"/><stop offset="0.52" style="stop-color:rgb(191,220,217);stop-opacity:1"/><stop offset="1" style="stop-color:white;stop-opacity:1"/></linearGradient>
    </defs>
</svg>
